<?xml version="1.0" encoding="UTF-8"?>
<!DOCTYPE svg PUBLIC "-//W3C//DTD SVG 1.1//EN" "http://www.w3.org/Graphics/SVG/1.1/DTD/svg11.dtd">
<svg xmlns="http://www.w3.org/2000/svg" version="1.1" width="500px" height="500px" style="shape-rendering:geometricPrecision; text-rendering:geometricPrecision; image-rendering:optimizeQuality; fill-rule:evenodd; clip-rule:evenodd" xmlns:xlink="http://www.w3.org/1999/xlink">
<g><path style="opacity:1" fill="#1a74c8" d="M 152.5,213.5 C 152.98,219.658 152.313,225.658 150.5,231.5C 150.68,232.554 151.013,233.554 151.5,234.5C 159.223,235.197 166.89,235.864 174.5,236.5C 175.97,245.192 175.803,253.858 174,262.5C 167.256,263.479 160.422,263.812 153.5,263.5C 152.815,269.567 152.149,275.734 151.5,282C 142.942,283.441 134.276,283.941 125.5,283.5C 125.824,276.646 125.491,269.979 124.5,263.5C 124.167,263.5 123.833,263.5 123.5,263.5C 117.355,262.51 111.022,262.177 104.5,262.5C 103.998,258.14 105.498,254.806 109,252.5C 109.483,251.552 109.649,250.552 109.5,249.5C 107.833,249.5 106.167,249.5 104.5,249.5C 104.614,247.282 105.28,245.282 106.5,243.5C 106.833,243.5 107.167,243.5 107.5,243.5C 113.454,244.312 116.454,241.645 116.5,235.5C 119.698,236.036 122.365,235.369 124.5,233.5C 124.188,226.578 124.521,219.744 125.5,213C 134.578,212.196 143.578,212.363 152.5,213.5 Z"/></g>
<g><path style="opacity:0.996" fill="#4c80bd" d="M 348.5,223.5 C 346.897,224.677 345.564,224.511 344.5,223C 338.5,222.333 332.5,222.333 326.5,223C 325.151,223.772 324.318,224.939 324,226.5C 323.275,225.941 322.442,225.608 321.5,225.5C 319.107,227.249 316.774,228.915 314.5,230.5C 318.059,225.236 323.059,222.069 329.5,221C 333.833,220.333 338.167,220.333 342.5,221C 344.852,221.24 346.852,222.073 348.5,223.5 Z"/></g>
<g><path style="opacity:0.914" fill="#89aad6" d="M 348.5,223.5 C 350.973,223.088 352.306,224.088 352.5,226.5C 350.545,226.201 349.211,225.201 348.5,223.5 Z"/></g>
<g><path style="opacity:1" fill="#2272c3" d="M 271.5,221.5 C 271.5,223.833 271.5,226.167 271.5,228.5C 268.739,229.92 265.739,230.587 262.5,230.5C 261.542,230.047 260.708,229.381 260,228.5C 258.072,222.912 259.905,219.578 265.5,218.5C 268.102,218.467 270.102,219.467 271.5,221.5 Z"/></g>
<g><path style="opacity:0.161" fill="#9ab5dd" d="M 393.5,219.5 C 396.34,221.715 397.007,224.382 395.5,227.5C 395.416,224.673 394.75,222.006 393.5,219.5 Z"/></g>
<g><path style="opacity:1" fill="#2f75c5" d="M 393.5,219.5 C 394.75,222.006 395.416,224.673 395.5,227.5C 394.886,230.766 392.886,232.099 389.5,231.5C 381.827,228.975 380.827,224.809 386.5,219C 388.433,218.749 390.266,218.249 392,217.5C 392.278,218.416 392.778,219.082 393.5,219.5 Z"/></g>
<g><path style="opacity:0.145" fill="#e1f0fe" d="M 283.5,226.5 C 283.5,226.833 283.5,227.167 283.5,227.5C 283.5,230.5 283.5,233.5 283.5,236.5C 280.833,236.5 278.167,236.5 275.5,236.5C 277.607,235.532 279.941,235.198 282.5,235.5C 282.19,232.287 282.523,229.287 283.5,226.5 Z"/></g>
<g><path style="opacity:0.539" fill="#769bc9" d="M 271.5,221.5 C 273.833,229.833 270.833,232.833 262.5,230.5C 265.739,230.587 268.739,229.92 271.5,228.5C 271.5,226.167 271.5,223.833 271.5,221.5 Z"/></g>
<g><path style="opacity:1" fill="#2075c8" d="M 193.5,287.5 C 191.867,290.169 190.7,293.169 190,296.5C 188.951,294.893 187.451,294.227 185.5,294.5C 186.53,297.229 186.53,299.896 185.5,302.5C 184.527,302.987 183.527,303.487 182.5,304C 153.5,304.667 124.5,304.667 95.5,304C 93.2404,303.451 91.5738,302.284 90.5,300.5C 91.3976,298.373 93.0643,297.206 95.5,297C 123.363,296.179 151.197,296.346 179,297.5C 180.952,296.28 182.452,294.613 183.5,292.5C 183.328,291.508 183.662,290.842 184.5,290.5C 185.117,290.389 185.617,290.056 186,289.5C 186.83,262.33 186.664,235.33 185.5,208.5C 185.099,204.734 183.099,202.234 179.5,201C 155.5,200.667 131.5,200.333 107.5,200C 105.59,197.518 103.257,197.018 100.5,198.5C 101.59,199.609 101.59,200.609 100.5,201.5C 98.3651,200.119 96.0318,199.119 93.5,198.5C 95.275,197.043 97.275,195.876 99.5,195C 126.833,194.333 154.167,194.333 181.5,195C 182.328,195.915 183.328,196.581 184.5,197C 185.833,198.333 185.833,199.667 184.5,201C 187.423,201.848 189.923,203.348 192,205.5C 192.168,233.003 192.668,260.336 193.5,287.5 Z"/></g>
<g><path style="opacity:0.425" fill="#92b1dd" d="M 283.5,227.5 C 283.5,227.167 283.5,226.833 283.5,226.5C 286.833,226.5 290.167,226.5 293.5,226.5C 293.5,229.5 293.5,232.5 293.5,235.5C 297.042,235.187 300.375,235.521 303.5,236.5C 299.833,236.5 296.167,236.5 292.5,236.5C 292.5,233.5 292.5,230.5 292.5,227.5C 289.5,227.5 286.5,227.5 283.5,227.5 Z"/></g>
<g><path style="opacity:1" fill="#2976cb" d="M 376.5,221.5 C 377.833,239.5 377.833,257.5 376.5,275.5C 376.667,258.163 376.5,240.83 376,223.5C 375.5,240.497 375.333,257.497 375.5,274.5C 372.833,274.5 370.167,274.5 367.5,274.5C 367.5,256.833 367.5,239.167 367.5,221.5C 370.5,221.5 373.5,221.5 376.5,221.5 Z"/></g>
<g><path style="opacity:1" fill="#1b72c6" d="M 348.5,223.5 C 349.211,225.201 350.545,226.201 352.5,226.5C 353.778,226.782 354.778,227.449 355.5,228.5C 355.729,232.418 356.729,236.085 358.5,239.5C 355.5,239.5 352.5,239.5 349.5,239.5C 346.825,234.83 342.825,232.163 337.5,231.5C 336.551,230.848 335.385,230.514 334,230.5C 332.319,230.608 331.152,231.275 330.5,232.5C 330.167,232.5 329.833,232.5 329.5,232.5C 328.25,232.423 327.417,231.756 327,230.5C 326.676,232.569 325.842,232.902 324.5,231.5C 321.833,232.5 321.833,233.5 324.5,234.5C 322.833,235.167 321.167,235.833 319.5,236.5C 320.939,238.343 320.772,240.01 319,241.5C 318.501,246.155 318.334,250.821 318.5,255.5C 316.836,256.306 315.169,255.973 313.5,254.5C 314.311,253.784 314.978,252.95 315.5,252C 313.998,250.842 312.665,248.842 311.5,246C 310.767,244.234 310.433,242.401 310.5,240.5C 311.5,240.5 312.5,240.5 313.5,240.5C 312.106,237.007 312.439,233.674 314.5,230.5C 316.774,228.915 319.107,227.249 321.5,225.5C 322.442,225.608 323.275,225.941 324,226.5C 324.318,224.939 325.151,223.772 326.5,223C 332.5,222.333 338.5,222.333 344.5,223C 345.564,224.511 346.897,224.677 348.5,223.5 Z"/></g>
<g><path style="opacity:0.529" fill="#82addd" d="M 337.5,231.5 C 335.05,231.298 332.717,231.631 330.5,232.5C 331.152,231.275 332.319,230.608 334,230.5C 335.385,230.514 336.551,230.848 337.5,231.5 Z"/></g>
<g><path style="opacity:1" fill="#2475c6" d="M 87.5,200.5 C 88.5,200.5 89.5,200.5 90.5,200.5C 90.5,201.833 90.5,203.167 90.5,204.5C 91.5,204.5 92.5,204.5 93.5,204.5C 91.4381,214.631 90.9381,224.964 92,235.5C 94.0408,236.423 96.2075,236.756 98.5,236.5C 98.5,235.167 98.5,233.833 98.5,232.5C 100.701,232.142 102.035,230.808 102.5,228.5C 104.396,227.534 106.396,227.201 108.5,227.5C 112.685,229.913 113.519,233.246 111,237.5C 107.665,239.592 104.165,241.259 100.5,242.5C 95.5,242.5 90.5,242.5 85.5,242.5C 85.3335,230.495 85.5001,218.495 86,206.5C 86.9025,205.299 88.0692,204.465 89.5,204C 88.0267,203.29 87.3601,202.124 87.5,200.5 Z"/></g>
<g><path style="opacity:0.004" fill="#fefffe" d="M 275.5,237.5 C 275.5,238.5 275.5,239.5 275.5,240.5C 274.761,240.631 274.094,240.464 273.5,240C 274.833,239.333 274.833,238.667 273.5,238C 274.094,237.536 274.761,237.369 275.5,237.5 Z"/></g>
<g><path style="opacity:0.98" fill="#5288c6" d="M 329.5,232.5 C 321.234,238.042 318.234,245.708 320.5,255.5C 319.833,255.5 319.167,255.5 318.5,255.5C 318.334,250.821 318.501,246.155 319,241.5C 320.772,240.01 320.939,238.343 319.5,236.5C 321.167,235.833 322.833,235.167 324.5,234.5C 321.833,233.5 321.833,232.5 324.5,231.5C 325.842,232.902 326.676,232.569 327,230.5C 327.417,231.756 328.25,232.423 329.5,232.5 Z"/></g>
<g><path style="opacity:1" fill="#2574c4" d="M 438.5,275.5 C 435.167,275.5 431.833,275.5 428.5,275.5C 429.136,266.435 428.47,257.769 426.5,249.5C 425.5,248.167 424.5,246.833 423.5,245.5C 420.375,244.521 417.042,244.187 413.5,244.5C 413.5,245.833 413.5,247.167 413.5,248.5C 413.443,249.609 413.11,250.609 412.5,251.5C 411.778,251.082 411.278,250.416 411,249.5C 410.5,257.827 410.334,266.16 410.5,274.5C 407.833,274.5 405.167,274.5 402.5,274.5C 402.5,262.167 402.5,249.833 402.5,237.5C 405.394,237.042 407.894,237.709 410,239.5C 410.483,238.552 410.649,237.552 410.5,236.5C 411.268,237.263 411.768,238.263 412,239.5C 413.41,238.213 414.91,237.046 416.5,236C 421.167,235.333 425.833,235.333 430.5,236C 434.49,237.99 436.99,241.157 438,245.5C 438.5,255.494 438.666,265.494 438.5,275.5 Z"/></g>
<g><path style="opacity:0.796" fill="#6e90c0" d="M 250.5,227.5 C 248.801,227.473 247.467,226.806 246.5,225.5C 244.198,224.178 241.865,224.178 239.5,225.5C 238.289,224.726 238.289,223.893 239.5,223C 230.84,222.5 222.173,222.334 213.5,222.5C 213.5,239.833 213.5,257.167 213.5,274.5C 223.015,274.173 232.348,274.506 241.5,275.5C 231.765,276.829 221.931,276.829 212,275.5C 211.5,257.503 211.333,239.503 211.5,221.5C 221.839,221.334 232.172,221.5 242.5,222C 246.07,222.611 248.737,224.444 250.5,227.5 Z"/></g>
<g><path style="opacity:0.882" fill="#507cb2" d="M 355.5,228.5 C 357.964,232.035 359.964,235.868 361.5,240C 357.311,240.812 353.311,240.645 349.5,239.5C 352.5,239.5 355.5,239.5 358.5,239.5C 356.729,236.085 355.729,232.418 355.5,228.5 Z"/></g>
<g><path style="opacity:1" fill="#5086c3" d="M 193.5,205.5 C 193.5,232.833 193.5,260.167 193.5,287.5C 192.668,260.336 192.168,233.003 192,205.5C 189.923,203.348 187.423,201.848 184.5,201C 185.833,199.667 185.833,198.333 184.5,197C 183.328,196.581 182.328,195.915 181.5,195C 154.167,194.333 126.833,194.333 99.5,195C 97.275,195.876 95.275,197.043 93.5,198.5C 96.0318,199.119 98.3651,200.119 100.5,201.5C 101.59,200.609 101.59,199.609 100.5,198.5C 103.257,197.018 105.59,197.518 107.5,200C 131.5,200.333 155.5,200.667 179.5,201C 183.099,202.234 185.099,204.734 185.5,208.5C 184.028,206.866 182.362,205.366 180.5,204C 153.167,203.333 125.833,203.333 98.5,204C 96.3333,204.833 94.8333,206.333 94,208.5C 93.5002,217.16 93.3336,225.827 93.5,234.5C 95.5542,234.635 97.2209,233.968 98.5,232.5C 98.5,233.833 98.5,235.167 98.5,236.5C 96.2075,236.756 94.0408,236.423 92,235.5C 90.9381,224.964 91.4381,214.631 93.5,204.5C 92.5,204.5 91.5,204.5 90.5,204.5C 90.5,203.167 90.5,201.833 90.5,200.5C 89.5,200.5 88.5,200.5 87.5,200.5C 88.9568,198.215 90.9568,196.382 93.5,195C 97.1432,194.028 100.81,193.194 104.5,192.5C 130.458,193.324 156.458,193.824 182.5,194C 188.426,195.757 192.092,199.591 193.5,205.5 Z"/></g>
<g><path style="opacity:1" fill="#3c7bb8" d="M 152.5,213.5 C 153.491,220.313 153.825,227.313 153.5,234.5C 160.913,233.872 167.913,234.539 174.5,236.5C 166.89,235.864 159.223,235.197 151.5,234.5C 151.013,233.554 150.68,232.554 150.5,231.5C 152.313,225.658 152.98,219.658 152.5,213.5 Z"/></g>
<g><path style="opacity:1" fill="#5d8cc0" d="M 108.5,227.5 C 106.396,227.201 104.396,227.534 102.5,228.5C 102.035,230.808 100.701,232.142 98.5,232.5C 100.143,227.233 103.476,225.566 108.5,227.5 Z"/></g>
<g><path style="opacity:1" fill="#2272c3" d="M 283.5,227.5 C 286.5,227.5 289.5,227.5 292.5,227.5C 292.5,230.5 292.5,233.5 292.5,236.5C 296.167,236.5 299.833,236.5 303.5,236.5C 304.833,239.167 304.833,241.833 303.5,244.5C 299.833,244.5 296.167,244.5 292.5,244.5C 292.177,250.69 292.51,256.69 293.5,262.5C 295.105,265.647 297.772,267.314 301.5,267.5C 303.369,269.635 304.036,272.302 303.5,275.5C 301.169,276.317 298.669,276.984 296,277.5C 295.235,277.43 294.735,277.097 294.5,276.5C 292.343,275.593 290.01,274.927 287.5,274.5C 285.413,273.415 284.08,271.749 283.5,269.5C 283.5,261.167 283.5,252.833 283.5,244.5C 280.833,244.5 278.167,244.5 275.5,244.5C 275.5,243.167 275.5,241.833 275.5,240.5C 275.5,239.5 275.5,238.5 275.5,237.5C 275.5,237.167 275.5,236.833 275.5,236.5C 278.167,236.5 280.833,236.5 283.5,236.5C 283.5,233.5 283.5,230.5 283.5,227.5 Z"/></g>
<g><path style="opacity:0.825" fill="#6495ca" d="M 87.5,200.5 C 87.3601,202.124 88.0267,203.29 89.5,204C 88.0692,204.465 86.9025,205.299 86,206.5C 85.5001,218.495 85.3335,230.495 85.5,242.5C 90.5,242.5 95.5,242.5 100.5,242.5C 97.4196,243.783 94.0863,244.45 90.5,244.5C 87.9886,244.712 85.8219,244.045 84,242.5C 83.3333,230.5 83.3333,218.5 84,206.5C 84.4238,203.975 85.5905,201.975 87.5,200.5 Z"/></g>
<g><path style="opacity:1" fill="#4e81b8" d="M 124.5,233.5 C 122.365,235.369 119.698,236.036 116.5,235.5C 116.454,241.645 113.454,244.312 107.5,243.5C 111.977,242.231 114.31,239.231 114.5,234.5C 117.939,234.747 121.272,234.414 124.5,233.5 Z"/></g>
<g><path style="opacity:1" fill="#2c76c6" d="M 246.5,225.5 C 247.467,226.806 248.801,227.473 250.5,227.5C 254.996,234.699 253.996,241.199 247.5,247C 253.229,249.459 255.896,253.793 255.5,260C 256.254,264.432 254.921,267.932 251.5,270.5C 252.167,268.181 252.334,265.847 252,263.5C 249.618,261.741 247.452,259.741 245.5,257.5C 244.828,258.949 244.161,260.282 243.5,261.5C 243.606,258.385 242.606,255.719 240.5,253.5C 238.085,252.186 235.252,251.519 232,251.5C 228.748,251.519 225.915,252.186 223.5,253.5C 223.177,257.226 223.511,260.893 224.5,264.5C 227.382,265.231 230.049,265.564 232.5,265.5C 229.642,266.166 226.642,266.833 223.5,267.5C 224.605,268.892 225.939,270.059 227.5,271C 225.559,271.304 223.893,272.137 222.5,273.5C 221.78,265.674 220.78,257.841 219.5,250C 219.376,247.41 220.042,245.077 221.5,243C 220.313,241.981 219.313,240.814 218.5,239.5C 219.247,239.264 220.08,238.93 221,238.5C 220.454,235.018 220.788,231.685 222,228.5C 222.5,229 223,229.5 223.5,230C 229.038,230.236 234.538,230.736 240,231.5C 242.392,229.683 244.559,227.683 246.5,225.5 Z M 228.5,231.5 C 231.813,231.475 235.48,231.975 239.5,233C 242.125,238.125 240.458,241.459 234.5,243C 230.848,243.499 227.182,243.665 223.5,243.5C 223.5,239.833 223.5,236.167 223.5,232.5C 225.415,232.784 227.081,232.451 228.5,231.5 Z M 240.5,253.5 C 242.606,255.719 243.606,258.385 243.5,261.5C 240.366,264.231 236.699,265.564 232.5,265.5C 230.049,265.564 227.382,265.231 224.5,264.5C 223.511,260.893 223.177,257.226 223.5,253.5C 229.145,252.284 234.812,252.284 240.5,253.5 Z"/></g>
<g><path style="opacity:0.169" fill="#bed6f1" d="M 401.5,236.5 C 401.5,249.5 401.5,262.5 401.5,275.5C 404.833,275.5 408.167,275.5 411.5,275.5C 408.038,276.482 404.371,276.815 400.5,276.5C 400.171,262.99 400.504,249.656 401.5,236.5 Z"/></g>
<g><path style="opacity:0.969" fill="#709ecf" d="M 423.5,245.5 C 419.662,245.022 416.329,246.022 413.5,248.5C 413.5,247.167 413.5,245.833 413.5,244.5C 417.042,244.187 420.375,244.521 423.5,245.5 Z"/></g>
<g><path style="opacity:0.923" fill="#6088c4" d="M 260.5,275.5 C 260.5,273.167 260.5,270.833 260.5,268.5C 260.287,263.861 260.287,259.194 260.5,254.5C 260.5,253.833 260.5,253.167 260.5,252.5C 260.308,247.279 260.141,241.946 260,236.5C 263.667,235.167 267.333,235.167 271,236.5C 271.5,249.829 271.667,263.163 271.5,276.5C 267.629,276.815 263.962,276.482 260.5,275.5 Z"/></g>
<g><path style="opacity:0.145" fill="#c7e2fa" d="M 275.5,244.5 C 278.167,244.5 280.833,244.5 283.5,244.5C 283.5,252.833 283.5,261.167 283.5,269.5C 282.508,261.684 282.174,253.684 282.5,245.5C 279.941,245.802 277.607,245.468 275.5,244.5 Z"/></g>
<g><path style="opacity:0.443" fill="#75a8de" d="M 303.5,244.5 C 300.375,245.479 297.042,245.813 293.5,245.5C 293.5,251.167 293.5,256.833 293.5,262.5C 292.51,256.69 292.177,250.69 292.5,244.5C 296.167,244.5 299.833,244.5 303.5,244.5 Z"/></g>
<g><path style="opacity:0.812" fill="#5f85b4" d="M 376.5,221.5 C 373.5,221.5 370.5,221.5 367.5,221.5C 367.5,239.167 367.5,256.833 367.5,274.5C 370.287,275.477 373.287,275.81 376.5,275.5C 373.375,276.479 370.042,276.813 366.5,276.5C 366.5,257.833 366.5,239.167 366.5,220.5C 370.042,220.187 373.375,220.521 376.5,221.5 Z"/></g>
<g><path style="opacity:0.604" fill="#6796c8" d="M 240.5,253.5 C 234.812,252.284 229.145,252.284 223.5,253.5C 225.915,252.186 228.748,251.519 232,251.5C 235.252,251.519 238.085,252.186 240.5,253.5 Z"/></g>
<g><path style="opacity:0.005" fill="#fefffe" d="M 260.5,252.5 C 260.5,253.167 260.5,253.833 260.5,254.5C 258.067,254.214 258.067,253.548 260.5,252.5 Z"/></g>
<g><path style="opacity:1" fill="#2f76c2" d="M 106.5,243.5 C 105.28,245.282 104.614,247.282 104.5,249.5C 106.167,249.5 107.833,249.5 109.5,249.5C 109.649,250.552 109.483,251.552 109,252.5C 105.498,254.806 103.998,258.14 104.5,262.5C 111.022,262.177 117.355,262.51 123.5,263.5C 117.107,263.207 110.773,263.54 104.5,264.5C 103.614,263.675 103.281,262.675 103.5,261.5C 103.5,260.5 103.5,259.5 103.5,258.5C 95.6484,258.175 87.9818,258.508 80.5,259.5C 75.2357,262.706 71.9023,261.206 70.5,255C 70.6148,253.105 71.2815,251.438 72.5,250C 82.5166,249.832 92.5166,249.332 102.5,248.5C 103.098,247.205 103.598,245.872 104,244.5C 104.671,243.748 105.504,243.414 106.5,243.5 Z"/></g>
<g><path style="opacity:0.953" fill="#0f55a3" d="M 376.5,275.5 C 373.287,275.81 370.287,275.477 367.5,274.5C 370.167,274.5 372.833,274.5 375.5,274.5C 375.333,257.497 375.5,240.497 376,223.5C 376.5,240.83 376.667,258.163 376.5,275.5 Z"/></g>
<g><path style="opacity:1" fill="#1172c7" d="M 261.5,237.5 C 262.735,237.721 263.735,238.388 264.5,239.5C 266.071,238.691 267.738,238.357 269.5,238.5C 269.5,250.5 269.5,262.5 269.5,274.5C 266.833,274.5 264.167,274.5 261.5,274.5C 262.07,262.196 262.07,249.862 261.5,237.5 Z"/></g>
<g><path style="opacity:0.294" fill="#8eb4db" d="M 349.5,258.5 C 352.962,257.518 356.629,257.185 360.5,257.5C 360.784,259.415 360.451,261.081 359.5,262.5C 359.5,261.167 359.5,259.833 359.5,258.5C 356.167,258.5 352.833,258.5 349.5,258.5 Z"/></g>
<g><path style="opacity:0.043" fill="#c4f6fd" d="M 80.5,259.5 C 87.9818,258.508 95.6484,258.175 103.5,258.5C 103.5,259.5 103.5,260.5 103.5,261.5C 96.1081,259.586 88.4415,258.919 80.5,259.5 Z"/></g>
<g><path style="opacity:0.837" fill="#5b80b7" d="M 410.5,236.5 C 410.649,237.552 410.483,238.552 410,239.5C 407.894,237.709 405.394,237.042 402.5,237.5C 402.5,249.833 402.5,262.167 402.5,274.5C 405.167,274.5 407.833,274.5 410.5,274.5C 410.334,266.16 410.5,257.827 411,249.5C 411.278,250.416 411.778,251.082 412.5,251.5C 412.826,259.684 412.492,267.684 411.5,275.5C 408.167,275.5 404.833,275.5 401.5,275.5C 401.5,262.5 401.5,249.5 401.5,236.5C 404.5,235.167 407.5,235.167 410.5,236.5 Z"/></g>
<g><path style="opacity:0.642" fill="#528cc6" d="M 185.5,208.5 C 186.664,235.33 186.83,262.33 186,289.5C 185.617,290.056 185.117,290.389 184.5,290.5C 185.483,263.211 185.816,235.878 185.5,208.5 Z"/></g>
<g><path style="opacity:0.659" fill="#6695c6" d="M 193.5,205.5 C 194.664,234.33 194.83,263.33 194,292.5C 192.718,297.273 189.884,300.606 185.5,302.5C 186.53,299.896 186.53,297.229 185.5,294.5C 187.451,294.227 188.951,294.893 190,296.5C 190.7,293.169 191.867,290.169 193.5,287.5C 193.5,260.167 193.5,232.833 193.5,205.5 Z"/></g>
<g><path style="opacity:0.385" fill="#96bbe3" d="M 426.5,249.5 C 428.47,257.769 429.136,266.435 428.5,275.5C 431.833,275.5 435.167,275.5 438.5,275.5C 435.038,276.482 431.371,276.815 427.5,276.5C 427.804,267.416 427.471,258.416 426.5,249.5 Z"/></g>
<g><path style="opacity:1" fill="#477ec5" d="M 395.5,271.5 C 394.566,272.568 394.232,273.901 394.5,275.5C 390.833,275.5 387.167,275.5 383.5,275.5C 383.5,262.167 383.5,248.833 383.5,235.5C 387.437,235.207 391.27,235.54 395,236.5C 395.5,248.162 395.667,259.829 395.5,271.5 Z"/></g>
<g><path style="opacity:1" fill="#126fc7" d="M 384.5,237.5 C 385.82,238.942 387.486,239.608 389.5,239.5C 389.334,244.511 389.501,249.511 390,254.5C 391.526,255.545 392.359,257.045 392.5,259C 391.255,261.746 390.255,264.579 389.5,267.5C 389.667,268.5 389.833,269.5 390,270.5C 390.353,268.926 391.02,267.259 392,265.5C 393.289,268.351 393.789,271.351 393.5,274.5C 390.5,274.5 387.5,274.5 384.5,274.5C 384.5,262.167 384.5,249.833 384.5,237.5 Z"/></g>
<g><path style="opacity:0.014" fill="#f2f6fa" d="M 301.5,267.5 C 302.209,266.596 303.209,266.263 304.5,266.5C 304.81,269.713 304.477,272.713 303.5,275.5C 304.036,272.302 303.369,269.635 301.5,267.5 Z"/></g>
<g><path style="opacity:1" fill="#2f76c4" d="M 314.5,230.5 C 312.439,233.674 312.106,237.007 313.5,240.5C 312.5,240.5 311.5,240.5 310.5,240.5C 310.433,242.401 310.767,244.234 311.5,246C 312.665,248.842 313.998,250.842 315.5,252C 314.978,252.95 314.311,253.784 313.5,254.5C 315.169,255.973 316.836,256.306 318.5,255.5C 319.167,255.5 319.833,255.5 320.5,255.5C 325.019,264.794 332.353,267.96 342.5,265C 345.358,263.306 347.691,261.139 349.5,258.5C 352.833,258.5 356.167,258.5 359.5,258.5C 359.5,259.833 359.5,261.167 359.5,262.5C 356.752,268.916 352.085,273.249 345.5,275.5C 340.848,275.998 336.181,276.331 331.5,276.5C 323.493,275.847 317.16,272.18 312.5,265.5C 305.43,253.079 306.097,241.412 314.5,230.5 Z"/></g>
<g><path style="opacity:1" fill="#1a72c7" d="M 246.5,225.5 C 244.559,227.683 242.392,229.683 240,231.5C 234.538,230.736 229.038,230.236 223.5,230C 223,229.5 222.5,229 222,228.5C 220.788,231.685 220.454,235.018 221,238.5C 220.08,238.93 219.247,239.264 218.5,239.5C 219.313,240.814 220.313,241.981 221.5,243C 220.042,245.077 219.376,247.41 219.5,250C 220.78,257.841 221.78,265.674 222.5,273.5C 223.893,272.137 225.559,271.304 227.5,271C 225.939,270.059 224.605,268.892 223.5,267.5C 226.642,266.833 229.642,266.166 232.5,265.5C 236.699,265.564 240.366,264.231 243.5,261.5C 244.161,260.282 244.828,258.949 245.5,257.5C 247.452,259.741 249.618,261.741 252,263.5C 252.334,265.847 252.167,268.181 251.5,270.5C 249.008,273.675 245.674,275.341 241.5,275.5C 232.348,274.506 223.015,274.173 213.5,274.5C 213.5,257.167 213.5,239.833 213.5,222.5C 222.173,222.334 230.84,222.5 239.5,223C 238.289,223.893 238.289,224.726 239.5,225.5C 241.865,224.178 244.198,224.178 246.5,225.5 Z"/></g>
<g><path style="opacity:0.007" fill="#e8eded" d="M 260.5,268.5 C 260.5,270.833 260.5,273.167 260.5,275.5C 259.711,275.217 259.044,274.717 258.5,274C 259.109,272.052 259.776,270.218 260.5,268.5 Z"/></g>
<g><path style="opacity:0.69" fill="#82acd1" d="M 287.5,274.5 C 290.01,274.927 292.343,275.593 294.5,276.5C 292.473,276.662 290.473,276.495 288.5,276C 287.944,275.617 287.611,275.117 287.5,274.5 Z"/></g>
<g><path style="opacity:0.035" fill="#f2f8ff" d="M 395.5,271.5 C 395.5,273.167 395.5,274.833 395.5,276.5C 391.298,276.817 387.298,276.483 383.5,275.5C 387.167,275.5 390.833,275.5 394.5,275.5C 394.232,273.901 394.566,272.568 395.5,271.5 Z"/></g>
<g><path style="opacity:0.267" fill="#a5ccef" d="M 345.5,275.5 C 340.913,277.456 336.246,277.789 331.5,276.5C 336.181,276.331 340.848,275.998 345.5,275.5 Z"/></g>
<g><path style="opacity:0.298" fill="#96c4ee" d="M 77.5,277.5 C 79.5,277.5 81.5,277.5 83.5,277.5C 83.8333,277.5 84.1667,277.5 84.5,277.5C 84.5,282.167 84.5,286.833 84.5,291.5C 83.5151,287.366 83.1818,283.032 83.5,278.5C 81.2646,278.795 79.2646,278.461 77.5,277.5 Z"/></g>
<g><path style="opacity:0.824" fill="#5a8cbc" d="M 124.5,263.5 C 125.491,269.979 125.824,276.646 125.5,283.5C 134.276,283.941 142.942,283.441 151.5,282C 152.149,275.734 152.815,269.567 153.5,263.5C 153.666,270.508 153.5,277.508 153,284.5C 143.667,285.833 134.333,285.833 125,284.5C 124.5,277.508 124.334,270.508 124.5,263.5 Z"/></g>
<g><path style="opacity:1" fill="#3f7bc0" d="M 96.5,293.5 C 97.1342,294.947 98.3009,295.613 100,295.5C 101.07,295.472 101.903,295.139 102.5,294.5C 128.502,294.667 154.502,294.5 180.5,294C 181.244,292.961 182.244,292.461 183.5,292.5C 182.452,294.613 180.952,296.28 179,297.5C 151.197,296.346 123.363,296.179 95.5,297C 93.0643,297.206 91.3976,298.373 90.5,300.5C 86.791,298.777 84.791,295.777 84.5,291.5C 84.5,286.833 84.5,282.167 84.5,277.5C 85.7251,278.152 86.3917,279.319 86.5,281C 85.4858,284.812 85.4858,288.645 86.5,292.5C 88.5,292.833 90.5,293.167 92.5,293.5C 92.5,292.167 92.5,290.833 92.5,289.5C 90.712,289.785 89.0453,289.452 87.5,288.5C 90.3469,284.295 92.0136,279.628 92.5,274.5C 94.5499,273.923 95.5499,272.59 95.5,270.5C 96.5,270.5 97.5,270.5 98.5,270.5C 98.5,269.5 98.5,268.5 98.5,267.5C 91.825,267.334 85.1583,267.5 78.5,268C 80.4307,271.079 82.0974,274.245 83.5,277.5C 81.5,277.5 79.5,277.5 77.5,277.5C 73.6161,273.746 73.6161,269.913 77.5,266C 85.1883,265.169 92.855,265.335 100.5,266.5C 102.448,268.539 104.615,268.539 107,266.5C 113.348,266.561 115.681,269.895 114,276.5C 109.356,280.608 104.856,280.441 100.5,276C 98.1902,275.503 95.8568,275.337 93.5,275.5C 93.3341,280.511 93.5007,285.511 94,290.5C 95.045,291.373 95.8783,292.373 96.5,293.5 Z"/></g>
<g><path style="opacity:1" fill="#1473c8" d="M 84.5,277.5 C 84.1667,277.5 83.8333,277.5 83.5,277.5C 82.0974,274.245 80.4307,271.079 78.5,268C 85.1583,267.5 91.825,267.334 98.5,267.5C 98.5,268.5 98.5,269.5 98.5,270.5C 97.5,270.5 96.5,270.5 95.5,270.5C 95.5499,272.59 94.5499,273.923 92.5,274.5C 92.0136,279.628 90.3469,284.295 87.5,288.5C 89.0453,289.452 90.712,289.785 92.5,289.5C 92.5,290.833 92.5,292.167 92.5,293.5C 90.5,293.167 88.5,292.833 86.5,292.5C 85.4858,288.645 85.4858,284.812 86.5,281C 86.3917,279.319 85.7251,278.152 84.5,277.5 Z"/></g>
<g><path style="opacity:0.275" fill="#a0c7f4" d="M 96.5,293.5 C 98.5,293.833 100.5,294.167 102.5,294.5C 101.903,295.139 101.07,295.472 100,295.5C 98.3009,295.613 97.1342,294.947 96.5,293.5 Z"/></g>
</svg>
